<svg width="28" height="27" viewBox="0 0 28 27" fill="none" xmlns="http://www.w3.org/2000/svg">
<g filter="url(#filter0_d_486_95)">
<path d="M11.5 18.3332C11.9603 18.3332 12.3334 17.9601 12.3334 17.4998C12.3334 17.0396 11.9603 16.6665 11.5 16.6665C11.0398 16.6665 10.6667 17.0396 10.6667 17.4998C10.6667 17.9601 11.0398 18.3332 11.5 18.3332Z" stroke="#212121" stroke-width="1.33333" stroke-linecap="round" stroke-linejoin="round"/>
<path d="M20.6666 18.3332C21.1269 18.3332 21.5 17.9601 21.5 17.4998C21.5 17.0396 21.1269 16.6665 20.6666 16.6665C20.2064 16.6665 19.8333 17.0396 19.8333 17.4998C19.8333 17.9601 20.2064 18.3332 20.6666 18.3332Z" stroke="#212121" stroke-width="1.33333" stroke-linecap="round" stroke-linejoin="round"/>
<path d="M4.83331 0.833496H8.16665L10.4 11.9918C10.4762 12.3755 10.6849 12.7201 10.9896 12.9654C11.2943 13.2107 11.6756 13.341 12.0666 13.3335H20.1666C20.5577 13.341 20.939 13.2107 21.2437 12.9654C21.5484 12.7201 21.7571 12.3755 21.8333 11.9918L23.1666 5.00016H8.99998" stroke="#212121" stroke-width="1.33333" stroke-linecap="round" stroke-linejoin="round"/>
</g>
<defs>
<filter id="filter0_d_486_95" x="0" y="0" width="28" height="28" filterUnits="userSpaceOnUse" color-interpolation-filters="sRGB">
<feFlood flood-opacity="0" result="BackgroundImageFix"/>
<feColorMatrix in="SourceAlpha" type="matrix" values="0 0 0 0 0 0 0 0 0 0 0 0 0 0 0 0 0 0 127 0" result="hardAlpha"/>
<feOffset dy="4"/>
<feGaussianBlur stdDeviation="2"/>
<feComposite in2="hardAlpha" operator="out"/>
<feColorMatrix type="matrix" values="0 0 0 0 0 0 0 0 0 0 0 0 0 0 0 0 0 0 0.25 0"/>
<feBlend mode="normal" in2="BackgroundImageFix" result="effect1_dropShadow_486_95"/>
<feBlend mode="normal" in="SourceGraphic" in2="effect1_dropShadow_486_95" result="shape"/>
</filter>
</defs>
</svg>
